<svg width="233" height="95" viewBox="0 0 233 95" fill="none" xmlns="http://www.w3.org/2000/svg">
<path d="M73.8253 44.9669C73.8253 53.0171 65.7737 59.5432 55.8414 59.5432C45.9092 59.5432 37.8576 53.0171 37.8576 44.9669C37.8576 40.8074 37.1073 30.8599 40.5552 28.2042C43.7802 25.7201 51.0411 30.3906 55.8414 30.3906C61.3109 30.3906 68.7285 25.0815 72.0269 28.2042C74.7182 30.7522 73.8253 41.3497 73.8253 44.9669Z" fill="black"/>
<path d="M51.5743 57.058C53.5235 53.8654 58.1599 53.8654 60.1092 57.058L60.8478 58.2677L65.8539 66.4669L72.5287 77.3991L74.5598 80.7258C76.5941 84.0576 74.1961 88.3313 70.2923 88.3313H41.3911C37.4873 88.3313 35.0894 84.0576 37.1236 80.7258L39.1548 77.3991L45.8295 66.4669L50.8356 58.2677L51.5743 57.058Z" fill="black"/>
<path d="M85.8836 17.4207C80.3216 12.416 73.1527 8.71074 65.1459 6.70227C57.1391 4.69379 48.5963 4.45788 40.4338 6.01982C32.2713 7.58176 24.797 10.8826 18.8125 15.5684C12.828 20.2542 8.55916 26.1482 6.46372 32.6181C4.36827 39.088 4.52531 45.8899 6.91799 52.2942C9.31067 58.6986 13.8487 64.4637 20.0454 68.9713C26.2422 73.479 33.8638 76.5591 42.0929 77.8814" stroke="black" stroke-width="10"/>
<path d="M83.2497 79.24C81.5297 79.24 79.9997 78.88 78.6597 78.16C77.3397 77.44 76.2897 76.46 75.5097 75.22C74.7497 73.96 74.3697 72.53 74.3697 70.93C74.3697 69.31 74.7497 67.88 75.5097 66.64C76.2897 65.38 77.3397 64.4 78.6597 63.7C79.9997 62.98 81.5297 62.62 83.2497 62.62C84.9497 62.62 86.4697 62.98 87.8097 63.7C89.1497 64.4 90.1997 65.37 90.9597 66.61C91.7197 67.85 92.0997 69.29 92.0997 70.93C92.0997 72.53 91.7197 73.96 90.9597 75.22C90.1997 76.46 89.1497 77.44 87.8097 78.16C86.4697 78.88 84.9497 79.24 83.2497 79.24ZM83.2497 75.4C84.0297 75.4 84.7297 75.22 85.3497 74.86C85.9697 74.5 86.4597 73.99 86.8197 73.33C87.1797 72.65 87.3597 71.85 87.3597 70.93C87.3597 69.99 87.1797 69.19 86.8197 68.53C86.4597 67.87 85.9697 67.36 85.3497 67C84.7297 66.64 84.0297 66.46 83.2497 66.46C82.4697 66.46 81.7697 66.64 81.1497 67C80.5297 67.36 80.0297 67.87 79.6497 68.53C79.2897 69.19 79.1097 69.99 79.1097 70.93C79.1097 71.85 79.2897 72.65 79.6497 73.33C80.0297 73.99 80.5297 74.5 81.1497 74.86C81.7697 75.22 82.4697 75.4 83.2497 75.4ZM103.329 79.36C102.009 79.36 100.809 79.17 99.7286 78.79C98.6486 78.39 97.7086 77.78 96.9086 76.96C96.1286 76.12 95.5186 75.05 95.0786 73.75C94.6586 72.45 94.4486 70.9 94.4486 69.1C94.4486 67.82 94.5586 66.65 94.7786 65.59C94.9986 64.53 95.3286 63.57 95.7686 62.71C96.2086 61.83 96.7686 61.06 97.4486 60.4C98.1486 59.72 98.9586 59.16 99.8786 58.72C100.819 58.26 101.879 57.91 103.059 57.67L110.739 56.14L111.369 60.16L104.589 61.51C104.189 61.59 103.729 61.7 103.209 61.84C102.709 61.96 102.199 62.15 101.679 62.41C101.179 62.67 100.709 63.04 100.269 63.52C99.8486 63.98 99.5086 64.59 99.2486 65.35C98.9886 66.09 98.8586 67.01 98.8586 68.11C98.8586 68.45 98.8686 68.71 98.8886 68.89C98.9286 69.07 98.9586 69.26 98.9786 69.46C99.0186 69.66 99.0386 69.97 99.0386 70.39L97.5386 68.92C97.9786 67.98 98.5386 67.18 99.2186 66.52C99.9186 65.86 100.719 65.36 101.619 65.02C102.539 64.66 103.559 64.48 104.679 64.48C106.199 64.48 107.529 64.79 108.669 65.41C109.829 66.01 110.729 66.86 111.369 67.96C112.009 69.06 112.329 70.31 112.329 71.71C112.329 73.23 111.949 74.57 111.189 75.73C110.429 76.87 109.369 77.76 108.009 78.4C106.669 79.04 105.109 79.36 103.329 79.36ZM103.569 75.73C104.349 75.73 105.039 75.56 105.639 75.22C106.239 74.86 106.699 74.39 107.019 73.81C107.359 73.21 107.529 72.54 107.529 71.8C107.529 71.08 107.359 70.44 107.019 69.88C106.699 69.32 106.239 68.88 105.639 68.56C105.039 68.24 104.339 68.08 103.539 68.08C102.759 68.08 102.059 68.24 101.439 68.56C100.819 68.86 100.339 69.28 99.9986 69.82C99.6586 70.36 99.4886 70.99 99.4886 71.71C99.4886 72.45 99.6586 73.13 99.9986 73.75C100.359 74.35 100.839 74.83 101.439 75.19C102.059 75.55 102.769 75.73 103.569 75.73ZM124.9 79V75.85L124.6 75.16V69.52C124.6 68.52 124.29 67.74 123.67 67.18C123.07 66.62 122.14 66.34 120.88 66.34C120.02 66.34 119.17 66.48 118.33 66.76C117.51 67.02 116.81 67.38 116.23 67.84L114.55 64.57C115.43 63.95 116.49 63.47 117.73 63.13C118.97 62.79 120.23 62.62 121.51 62.62C123.97 62.62 125.88 63.2 127.24 64.36C128.6 65.52 129.28 67.33 129.28 69.79V79H124.9ZM119.98 79.24C118.72 79.24 117.64 79.03 116.74 78.61C115.84 78.17 115.15 77.58 114.67 76.84C114.19 76.1 113.95 75.27 113.95 74.35C113.95 73.39 114.18 72.55 114.64 71.83C115.12 71.11 115.87 70.55 116.89 70.15C117.91 69.73 119.24 69.52 120.88 69.52H125.17V72.25H121.39C120.29 72.25 119.53 72.43 119.11 72.79C118.71 73.15 118.51 73.6 118.51 74.14C118.51 74.74 118.74 75.22 119.2 75.58C119.68 75.92 120.33 76.09 121.15 76.09C121.93 76.09 122.63 75.91 123.25 75.55C123.87 75.17 124.32 74.62 124.6 73.9L125.32 76.06C124.98 77.1 124.36 77.89 123.46 78.43C122.56 78.97 121.4 79.24 119.98 79.24ZM144.776 79L139.376 71.35L143.186 69.1L150.296 79H144.776ZM133.346 79V62.86H138.026V79H133.346ZM136.646 72.88V69.13H142.286V72.88H136.646ZM143.636 71.47L139.256 70.99L144.926 62.86H149.906L143.636 71.47ZM159.986 79.24C158.146 79.24 156.526 78.88 155.126 78.16C153.746 77.44 152.676 76.46 151.916 75.22C151.156 73.96 150.776 72.53 150.776 70.93C150.776 69.31 151.146 67.88 151.886 66.64C152.646 65.38 153.676 64.4 154.976 63.7C156.276 62.98 157.746 62.62 159.386 62.62C160.966 62.62 162.386 62.96 163.646 63.64C164.926 64.3 165.936 65.26 166.676 66.52C167.416 67.76 167.786 69.25 167.786 70.99C167.786 71.17 167.776 71.38 167.756 71.62C167.736 71.84 167.716 72.05 167.696 72.25H154.586V69.52H165.236L163.436 70.33C163.436 69.49 163.266 68.76 162.926 68.14C162.586 67.52 162.116 67.04 161.516 66.7C160.916 66.34 160.216 66.16 159.416 66.16C158.616 66.16 157.906 66.34 157.286 66.7C156.686 67.04 156.216 67.53 155.876 68.17C155.536 68.79 155.366 69.53 155.366 70.39V71.11C155.366 71.99 155.556 72.77 155.936 73.45C156.336 74.11 156.886 74.62 157.586 74.98C158.306 75.32 159.146 75.49 160.106 75.49C160.966 75.49 161.716 75.36 162.356 75.1C163.016 74.84 163.616 74.45 164.156 73.93L166.646 76.63C165.906 77.47 164.976 78.12 163.856 78.58C162.736 79.02 161.446 79.24 159.986 79.24ZM171.373 79V62.86H176.023V69.16H183.043V62.86H187.723V79H183.043V72.97H176.023V79H171.373Z" fill="black"/>
</svg>
